<svg xmlns="http://www.w3.org/2000/svg" width="960" height="480">
  <rect width="100%" height="100%" fill="#faf8f3"/>
  <text x="480.0" y="30" font-size="22" text-anchor="middle" fill="#222">Stale Answer Rate</text>
  <line x1="140" y1="410" x2="920" y2="410" stroke="#333" />
  <line x1="140" y1="60" x2="140" y2="410" stroke="#333" />
  <line x1="140" y1="410.0" x2="920" y2="410.0" stroke="#ddd" /><text x="130" y="414.0" font-size="12" text-anchor="end" fill="#555">0.000</text><line x1="140" y1="327.5" x2="920" y2="327.5" stroke="#ddd" /><text x="130" y="331.5" font-size="12" text-anchor="end" fill="#555">0.217</text><line x1="140" y1="245.0" x2="920" y2="245.0" stroke="#ddd" /><text x="130" y="249.0" font-size="12" text-anchor="end" fill="#555">0.433</text><line x1="140" y1="162.5" x2="920" y2="162.5" stroke="#ddd" /><text x="130" y="166.5" font-size="12" text-anchor="end" fill="#555">0.650</text><line x1="140" y1="80.0" x2="920" y2="80.0" stroke="#ddd" /><text x="130" y="84.0" font-size="12" text-anchor="end" fill="#555">0.867</text>
  <rect x="140.0" y="80.0" width="144.8" height="330.0" fill="#b03a2e" rx="6" /><text x="212.4" y="432.0" font-size="12" text-anchor="middle" fill="#333">param_only</text><text x="212.4" y="72.0" font-size="12" text-anchor="middle" fill="#333">0.867</text><rect x="298.8" y="80.0" width="144.8" height="330.0" fill="#b03a2e" rx="6" /><text x="371.2" y="432.0" font-size="12" text-anchor="middle" fill="#333">always_retrieve</text><text x="371.2" y="72.0" font-size="12" text-anchor="middle" fill="#333">0.867</text><rect x="457.6" y="257.7" width="144.8" height="152.3" fill="#b03a2e" rx="6" /><text x="530.0" y="432.0" font-size="12" text-anchor="middle" fill="#333">memory_only</text><text x="530.0" y="249.7" font-size="12" text-anchor="middle" fill="#333">0.400</text><rect x="616.4" y="333.8" width="144.8" height="76.2" fill="#b03a2e" rx="6" /><text x="688.8" y="432.0" font-size="12" text-anchor="middle" fill="#333">fast_adapt_only</text><text x="688.8" y="325.8" font-size="12" text-anchor="middle" fill="#333">0.200</text><rect x="775.2" y="359.2" width="144.8" height="50.8" fill="#b03a2e" rx="6" /><text x="847.6" y="432.0" font-size="12" text-anchor="middle" fill="#333">router</text><text x="847.6" y="351.2" font-size="12" text-anchor="middle" fill="#333">0.133</text>
</svg>