<svg xmlns="http://www.w3.org/2000/svg" width="960" height="480">
  <rect width="100%" height="100%" fill="#faf8f3"/>
  <text x="480.0" y="30" font-size="22" text-anchor="middle" fill="#222">Router Action Distribution</text>
  <line x1="140" y1="410" x2="920" y2="410" stroke="#333" />
  <line x1="140" y1="60" x2="140" y2="410" stroke="#333" />
  <line x1="140" y1="410.0" x2="920" y2="410.0" stroke="#ddd" /><text x="130" y="414.0" font-size="12" text-anchor="end" fill="#555">0.000</text><line x1="140" y1="327.5" x2="920" y2="327.5" stroke="#ddd" /><text x="130" y="331.5" font-size="12" text-anchor="end" fill="#555">1.000</text><line x1="140" y1="245.0" x2="920" y2="245.0" stroke="#ddd" /><text x="130" y="249.0" font-size="12" text-anchor="end" fill="#555">2.000</text><line x1="140" y1="162.5" x2="920" y2="162.5" stroke="#ddd" /><text x="130" y="166.5" font-size="12" text-anchor="end" fill="#555">3.000</text><line x1="140" y1="80.0" x2="920" y2="80.0" stroke="#ddd" /><text x="130" y="84.0" font-size="12" text-anchor="end" fill="#555">4.000</text>
  <rect x="140.0" y="80.0" width="118.3" height="330.0" fill="#2874a6" rx="6" /><text x="199.2" y="432.0" font-size="12" text-anchor="middle" fill="#333">param_only</text><text x="199.2" y="72.0" font-size="12" text-anchor="middle" fill="#333">4.000</text><rect x="272.3" y="162.5" width="118.3" height="247.5" fill="#2874a6" rx="6" /><text x="331.5" y="432.0" font-size="12" text-anchor="middle" fill="#333">write_memory</text><text x="331.5" y="154.5" font-size="12" text-anchor="middle" fill="#333">3.000</text><rect x="404.7" y="245.0" width="118.3" height="165.0" fill="#2874a6" rx="6" /><text x="463.8" y="432.0" font-size="12" text-anchor="middle" fill="#333">consolidate</text><text x="463.8" y="237.0" font-size="12" text-anchor="middle" fill="#333">2.000</text><rect x="537.0" y="162.5" width="118.3" height="247.5" fill="#2874a6" rx="6" /><text x="596.2" y="432.0" font-size="12" text-anchor="middle" fill="#333">read_memory</text><text x="596.2" y="154.5" font-size="12" text-anchor="middle" fill="#333">3.000</text><rect x="669.3" y="245.0" width="118.3" height="165.0" fill="#2874a6" rx="6" /><text x="728.5" y="432.0" font-size="12" text-anchor="middle" fill="#333">fast_adapt</text><text x="728.5" y="237.0" font-size="12" text-anchor="middle" fill="#333">2.000</text><rect x="801.7" y="327.5" width="118.3" height="82.5" fill="#2874a6" rx="6" /><text x="860.8" y="432.0" font-size="12" text-anchor="middle" fill="#333">retrieve</text><text x="860.8" y="319.5" font-size="12" text-anchor="middle" fill="#333">1.000</text>
</svg>