<svg xmlns="http://www.w3.org/2000/svg" width="960" height="480">
  <rect width="100%" height="100%" fill="#faf8f3"/>
  <text x="480.0" y="30" font-size="22" text-anchor="middle" fill="#222">Router Action Distribution</text>
  <line x1="140" y1="410" x2="920" y2="410" stroke="#333" />
  <line x1="140" y1="60" x2="140" y2="410" stroke="#333" />
  <line x1="140" y1="410.0" x2="920" y2="410.0" stroke="#ddd" /><text x="130" y="414.0" font-size="12" text-anchor="end" fill="#555">0.000</text><line x1="140" y1="327.5" x2="920" y2="327.5" stroke="#ddd" /><text x="130" y="331.5" font-size="12" text-anchor="end" fill="#555">42.750</text><line x1="140" y1="245.0" x2="920" y2="245.0" stroke="#ddd" /><text x="130" y="249.0" font-size="12" text-anchor="end" fill="#555">85.500</text><line x1="140" y1="162.5" x2="920" y2="162.5" stroke="#ddd" /><text x="130" y="166.5" font-size="12" text-anchor="end" fill="#555">128.250</text><line x1="140" y1="80.0" x2="920" y2="80.0" stroke="#ddd" /><text x="130" y="84.0" font-size="12" text-anchor="end" fill="#555">171.000</text>
  <rect x="140.0" y="108.9" width="184.5" height="301.1" fill="#2874a6" rx="6" /><text x="232.2" y="432.0" font-size="12" text-anchor="middle" fill="#333">write_memory</text><text x="232.2" y="100.9" font-size="12" text-anchor="middle" fill="#333">156.000</text><rect x="338.5" y="80.0" width="184.5" height="330.0" fill="#2874a6" rx="6" /><text x="430.8" y="432.0" font-size="12" text-anchor="middle" fill="#333">read_memory</text><text x="430.8" y="72.0" font-size="12" text-anchor="middle" fill="#333">171.000</text><rect x="537.0" y="195.8" width="184.5" height="214.2" fill="#2874a6" rx="6" /><text x="629.2" y="432.0" font-size="12" text-anchor="middle" fill="#333">retrieve</text><text x="629.2" y="187.8" font-size="12" text-anchor="middle" fill="#333">111.000</text><rect x="735.5" y="290.4" width="184.5" height="119.6" fill="#2874a6" rx="6" /><text x="827.8" y="432.0" font-size="12" text-anchor="middle" fill="#333">param_only</text><text x="827.8" y="282.4" font-size="12" text-anchor="middle" fill="#333">62.000</text>
</svg>